Patient4_TMGait_0pt2_02_right_14_EMG.mot
version=1
nRows=20
nColumns=33
inDegrees=no
endheader
time	1LAddLong	2LGlutMax	3LGlutMed	4LIliopsoas	5LSemiMemb	6LBicFemLong	7LRecFem	8LVastMed	9LVastLat	10LGasMed	11LTibAnt	12lTibPost	13LPeroneusLong	14LSol	15LExtDigLong	16LFlexDigLong	17RAddLong	18RGlutMax	19RGlutMed	20RIliopsoas	21RSemiMemb	22RBicFemLong	23RRecFem	24RVastMed	25RVastLat	26RGasMed	27RTibAnt	28RTibPost	29RPeroneusLong	30RSol	31RExtDigLong	32RFlexDigLong
30.9	-0.01236	0.23941	0.1062	-0.034485	0.004425	0.091248	0.019073	-0.007935	-0.076294	0.0737	0.21484	-0.005035	-0.23178	0.15488	0.10696	-0.047913	-0.031586	-0.31891	0.71396	-0.050659	-0.17975	0.068512	-0.053864	-0.011902	0.060577	0.001526	0.007477	0.000763	-0.29648	-0.1207	0.00061	-0.013733
30.901	-0.017242	0.22324	0.11307	-0.028687	-0.004578	0.10284	-0.044403	-0.003967	-0.086365	0.17716	-0.15533	0.009613	0.095978	0.1561	-0.65002	-0.054474	0.006256	-0.27588	0.61966	0.029907	-0.1683	0.10513	-0.051575	0.024109	0.050049	0.002289	-0.020142	-0.001831	-0.000916	-0.10346	-0.004272	-0.010071
30.902	-0.020905	0.21042	0.10864	-0.003967	-0.002594	0.10178	-0.10025	0.013275	-0.042725	0.12528	-0.11185	-0.026703	0.30975	0.090332	-0.55588	-0.055084	-0.00946	-0.31876	0.5777	0.12833	-0.14358	0.10651	-0.020294	0.030975	0.040741	0.002747	-0.027771	-0.002899	-0.37796	-0.092316	-0.000763	-0.00885
30.903	-0.011292	0.17731	0.038147	-0.003052	-0.005188	0.099335	-0.050812	0.039673	-0.092468	0.26855	-0.028992	0.036621	0.15579	0.097351	-0.50842	-0.063171	-0.03891	-0.31555	0.55435	0.13641	-0.13962	0.10071	-0.015717	0.095825	0.041504	-0.006409	-0.007324	-0.004272	-0.16998	-0.000916	0	-0.018005
30.904	-0.005493	0.18738	0.057983	-0.003052	-0.014954	0.039673	0.005035	0.047302	-0.11627	0.51331	0.015564	0.078735	-0.21637	0.039825	-0.43854	-0.059052	-0.063477	-0.35385	0.47226	0.12466	-0.13336	0.10559	-0.056305	0.090637	0.033569	-0.014496	-0.008087	-0.001984	0.22964	0.099335	-0.00061	-0.018616
30.905	0.001068	0.21866	-0.018463	0.016785	-0.022583	-0.045166	-0.082855	0.035248	-0.040588	0.327	0.025177	0.010529	-0.2063	-0.092468	-0.19455	-0.05188	-0.051422	-0.39459	0.97137	-0.027008	-0.14099	0.079041	-0.08316	0.058899	0.034332	-0.015259	0.010834	-0.002899	0.10178	0.090027	0.001068	-0.013123
30.906	-0.031891	0.24216	0.097809	0.017548	-0.02243	-0.074921	-0.041046	0.014343	-0.00412	0.15717	-0.012665	-0.021973	-0.018463	-0.18875	0.032349	-0.070801	-0.019073	-0.46677	0.93018	-0.22553	-0.14358	0.06424	-0.075836	0.066528	0.018158	-0.007324	0.019379	-0.002289	-0.001831	0.10346	-0.001678	-0.009003
30.907	0.082397	0.23239	0.10071	0.021667	-0.021057	-0.021973	0.043182	-0.024414	0.080414	-0.023956	-0.056152	-0.035095	-0.068054	-0.13596	0.14465	-0.071106	0.037384	-0.48523	0.77957	-0.37384	-0.1503	0.046539	-0.082855	0.045776	0.018005	-0.010529	0.006409	-0.004425	0.007172	0.15778	0.003967	-0.011139
30.908	-0.019989	0.20035	0.10117	0.016174	0.001831	0.001678	0.096436	-0.063019	0.29816	-0.29755	-0.02533	-0.006866	-0.20065	-0.26169	0.20874	-0.074921	0.090179	-0.57083	0.77499	-0.27084	-0.16815	-0.003052	-0.092316	0.060883	0.015106	-0.007324	0.00061	-0.001373	-0.046234	0.23071	-0.002899	-0.007935
30.909	-0.025024	0.15671	0.08255	0.027771	-0.043335	-0.018158	0.21469	-0.075226	0.29144	-0.43045	-0.056	-0.077667	0.036621	-0.35767	0.1355	-0.081482	0.097198	-0.66177	0.45044	-0.10971	-0.17868	-0.037689	-0.064392	0.009308	-0.011902	-0.009613	-0.000153	-0.00412	-0.060883	0.23148	-0.001221	-0.003967
30.91	-0.032806	0.095215	0.055695	0.02594	0.001831	0.005188	0.15533	-0.041046	0.21942	-0.38223	-0.046844	-0.11459	0.085297	-0.22705	0.15533	-0.066986	0.10757	-0.77148	0.58487	0.080566	-0.19012	-0.055542	0.000763	-0.052795	-0.040283	-0.005188	-0.008698	-0.003357	-0.06134	0.22003	-0.002747	-0.006104
30.911	-0.007172	0.058746	-0.016327	0.016632	0.032959	0.12207	0.1889	-0.025787	0.20737	-0.060272	-0.038147	0.17487	0.095825	-0.070801	0.15778	-0.065918	0.043793	-0.83557	0.69	0.22263	-0.19531	-0.079498	-0.001984	-0.016785	-0.032806	-0.005493	0.015259	-0.001526	-0.076447	0.06958	-0.000916	0.001526
30.912	0.00473	0.02182	-0.020752	0.005341	0.00412	0.18601	0.17258	-0.033722	0.17639	0.30121	-0.019073	0.21103	0.064087	0.039673	0.1033	-0.10849	0.015564	-0.82642	0.8873	0.25055	-0.18341	-0.080872	-0.072632	-0.00061	-0.004883	-0.007477	0.02594	0.000153	-0.015869	-0.084686	-0.000916	-0.010681
30.913	0.006409	-0.027771	-0.023041	-0.002441	0.034943	0.14069	0.18188	-0.033112	0.11368	0.3006	0.002441	0.057678	-0.11093	0.087891	0.082245	-0.085144	0.032196	-0.728	1.2764	0.045319	-0.18021	-0.1001	-0.011292	-0.051727	0.003815	0.000153	0.036469	-0.00061	0.001984	-0.20096	-0.001221	-0.005035
30.914	0.007782	-0.03891	-0.043945	-0.024261	0.04425	0.051117	0.21027	-0.013885	-0.061646	0.046997	-0.001526	-0.060883	-0.063171	-0.12543	0.057068	-0.00946	0.045624	-0.62332	1.7458	-0.17609	-0.20248	-0.10529	-0.00061	-0.062561	-0.016327	-0.00412	0.031433	-0.002441	-0.005341	-0.25482	-0.004425	-0.005188
30.915	0.002747	-0.063629	-0.079041	-0.019836	0.047913	0.097656	0.24979	0.020142	-0.37003	-0.30029	-0.010071	-0.061493	0.068054	-0.22125	0.023651	-0.10117	0.034943	-0.3569	1.7354	-0.081787	-0.21515	-0.10956	0.025177	-0.077209	-0.021515	0.000153	0.010986	-0.002899	-0.18234	-0.28336	0.000763	-0.012665
30.916	-0.000916	-0.058594	-0.12405	0.017242	0.029144	0.086517	0.28885	0.025482	-0.43335	-0.1976	-0.007477	-0.028534	0.097961	-0.30197	0.003052	-0.14969	-0.003357	-0.006256	0.95749	0.026855	-0.21301	-0.095978	0.027771	-0.055237	-0.035553	0.000153	0.027771	-0.005341	-0.008392	-0.20615	-0.001526	-0.01236
30.917	0.00946	-0.021057	-0.14099	0.007629	0.018768	0.12421	0.29999	0.014954	-0.39841	-0.092773	-0.012817	-0.019684	0.25284	-0.27374	-0.006409	0.35629	-0.052795	0.32562	0.87677	0.074615	-0.20355	-0.089722	0.021057	-0.055084	-0.024109	-0.007782	0.048828	-0.003815	-0.020905	-0.090332	0.001831	-0.012512
30.918	0.013275	-0.061035	-0.06073	-0.016479	0.016632	0.090332	0.2359	0.004883	-0.31632	-0.01297	-0.024719	0.039215	0.29556	-0.043488	0.027161	0.042572	-0.097656	0.69733	1.4003	0.21912	-0.19959	-0.052795	0.041656	-0.033722	-0.020599	-0.006409	0.042114	-0.002899	-0.043793	0.00885	-0.000305	-0.013428
30.919	0.020599	-0.037079	-0.05661	-0.015564	0.024872	0.097504	0.059204	-0.026703	-0.24826	-0.024567	-0.009155	-0.01297	0.033112	0.23605	0.040436	-0.242	-0.08667	1.015	1.4595	0.31632	-0.18127	-0.050812	-0.038147	0.018768	-0.001678	-0.002136	-0.013428	-0.00885	0.12619	-0.030518	0.000305	-0.019836
